<?xml version="1.0"?>
<svg width="339" height="162" xmlns="http://www.w3.org/2000/svg" xmlns:svg="http://www.w3.org/2000/svg" version="1.1">
 <g class="layer">
  <title>Layer 1</title>
  <g fill="none" id="svg_1" stroke="#000" stroke-width="1px" transform="translate(-2.5 -1.5) matrix(1 0 0 1 -267.58 -450.1)">
   <path d="m450.91,510.44c-2.57,0.21 -7.6,1.4 -11.32,1.83c-3.72,0.42 -8.4,0.53 -10.96,0.73c-2.56,0.19 -2.82,-0.1 -4.38,0.36c-1.57,0.47 -1.58,1.76 -4.75,2.56s-9.38,0.21 -12.42,1.09c-3.04,0.89 -3.55,0.52 -5.84,1.47c-2.29,0.94 -5,1.47 -9.86,2.19c-4.87,0.72 -13.69,1.31 -19.36,1.46c-5.67,0.14 -10.65,-0.32 -14.61,-0.37c-3.96,-0.05 -6.64,0 -9.13,0s-3.98,0.64 -5.85,0s-3.32,-1.57 -4.74,-3.65s-1.88,-5.11 -2.56,-8.77c-0.68,-3.65 -0.67,-8.64 -1.1,-13.14c-0.42,-4.51 -0.52,-9.54 -1.46,-13.88c-0.94,-4.35 -2.22,-8.38 -4.02,-12.06c-1.79,-3.67 -4.44,-7.76 -6.57,-9.86s-2.93,-2.04 -5.11,-3.29c-2.18,-1.24 -5.69,-3.15 -8.04,-4.01c-2.34,-0.87 -4.28,-1.71 -5.84,-1.46c-1.56,0.24 -2.26,0.63 -2.92,1.82c-0.67,1.2 -1.01,2.58 0,4.75c1,2.17 5.17,5.43 7.3,6.21c2.13,0.78 2.45,-0.65 4.02,0s2.79,2.1 4.38,4.38c1.59,2.28 3.17,6.32 4.38,9.5c1.22,3.17 2.32,5.82 2.93,9.49c0.6,3.68 0.38,8.83 0.36,12.42c-0.02,3.6 -0.49,6.08 -0.36,9.13s1,6.38 1.09,9.13c0.1,2.75 0.32,5.38 -0.36,7.31s-1.55,2.41 -2.93,4.02c-1.37,1.61 -3.27,3.17 -5.47,5.48s-4.77,4.83 -7.67,8.4s-7.4,9.21 -9.5,13.15c-2.1,3.93 -2.26,7.12 -3.65,9.86c-1.4,2.73 -2.67,4.55 -4.39,6.57s-4.25,3.44 -5.84,5.48s-2.14,4.13 -3.65,6.57s-4.11,5.7 -5.48,8.04c-1.37,2.34 -2.07,3.89 -2.92,5.84c-0.85,1.95 -2.49,3.69 -2.19,5.85c0.29,2.15 2.74,4.17 4.01,5.48s1.69,2.92 3.29,2.55s1.77,-2.86 2.56,-5.11c0.79,-2.25 0.82,-5.82 1.82,-8.4s1.21,-8.09 4.02,-6.94c2.81,1.15 -2.24,7.39 -2.55,9.86c-0.32,2.47 -0.71,3.25 0,4.75c0.7,1.5 2.14,3.74 4.01,3.29c1.88,-0.46 1.46,-3.35 2.56,-5.85c1.09,-2.49 2.22,-5.81 4.02,-9.13s4.82,-8.09 6.94,-10.59c2.11,-2.5 2.58,-3.16 5.11,-4.75c2.53,-1.59 7.3,-2 10.23,-4.02c2.92,-2.02 4.6,-5.48 6.94,-7.67s4.89,-4.17 6.94,-5.48s3.28,-1.81 5.11,-2.55s3.75,-1.51 5.84,-1.83c2.1,-0.32 4.08,-0.16 6.58,0s5.41,0.5 8.4,1.1c2.99,0.59 6.51,1.89 9.49,2.55c2.99,0.66 5.52,1.34 8.4,1.46c2.89,0.13 5.42,-0.53 8.77,-0.73s7.78,0.09 11.32,-0.36c3.55,-0.45 7.64,-1.31 9.86,-2.19c2.23,-0.89 1.97,-1.73 3.66,-2.19c1.68,-0.47 4.24,0.25 6.21,0s3.76,-1.88 5.47,-1.46c1.72,0.41 2.06,2.61 3.66,3.28c1.59,0.68 3.71,0.31 5.48,0.37c1.76,0.06 2.98,0 5.11,0s5.52,0.37 7.67,0s3.34,-1.34 5.11,-1.83c1.77,-0.49 3.89,-0.86 5.48,-1.09c1.59,-0.23 2.79,-0.45 4.02,-0.37c1.23,0.08 2.09,0.04 3.29,0.73c1.19,0.7 2.51,2.66 3.28,3.65c0.77,1 0.8,1.45 1.46,2.19c0.67,0.75 1.63,1.85 2.56,2.2c0.93,0.34 1.73,0.25 2.56,0c0.82,-0.25 1.09,-1.24 2.19,-1.46c1.09,-0.23 2.82,1.2 4.02,0.73c1.2,-0.48 1.8,-1.45 2.19,-2.93c0.38,-1.48 -0.29,-3.82 -0.73,-5.47c-0.45,-1.66 -0.84,-3.06 -1.83,-4.39s-2.31,-2.32 -4.02,-3.28c-1.71,-0.97 -4.32,-1.59 -6.21,-2.2c-1.89,-0.6 -3.27,-1.14 -5.11,-1.46c-1.83,-0.31 -4.02,-0.24 -5.84,-0.36s-3.72,-0.32 -5.12,-0.37c-1.4,-0.05 -2.94,0.96 -3.28,0c-0.35,-0.96 1.69,-1.05 2.19,-1.82c0.5,-0.77 0.15,-1.83 0.73,-2.56c0.57,-0.74 1.63,-1.09 2.55,-1.46c0.93,-0.37 2.47,-0.14 2.93,-0.73c0.46,-0.59 -0.79,-1.14 0,-1.46c0.78,-0.33 1.4,2.01 2.55,2.55c1.16,0.54 2.8,0.38 4.02,0.37c1.22,-0.01 2.25,-0.24 3.29,-0.37c1.03,-0.12 2.06,-0.1 2.92,-0.36c5,-2.56 -1.07,0.38 5.84,-1.83c0.54,-0.56 3.17,0.87 3.66,0.37c3.77,-1.92 6.22,-4.59 1.82,-7.67c-0.64,-0.27 -0.66,0.43 -1.09,0c-0.43,-0.43 0.05,-1.64 0,-2.56c-0.06,-0.91 -0.19,-1.58 -0.37,-2.92s-0.29,-3.84 -0.73,-5.11s-0.97,-1.83 -1.46,-2.56c-0.5,-0.73 -0.53,-1.02 -1.46,-1.83c-0.94,-0.8 -4.38,-2.55 -4.38,-2.55l0,-2.56l0.73,-4.75l0.36,-6.21s-4.2,2.86 -6.21,4.38c-2.01,1.53 -4.54,3.49 -5.84,4.75s-1.07,2.05 -2.19,2.56c-1.12,0.51 -1.45,-0.21 -4.02,0z" id="svg_2"/>
   <path d="m468.44,504.96l5.11,-3.29l-5.11,9.86l0,-6.57z" id="svg_3"/>
   <path d="m285.09,592.99l7.67,-6.94l6.21,-4.38l6.94,-4.02l5.84,-5.11l6.21,-6.21l4.75,-3.66l6.57,-4.01l6.58,-4.39" id="svg_4"/>
   <path d="m471.73,564.86l0.73,-5.11l-1.46,-4.75l-3.65,-4.38l-4.39,-2.56l-9.86,-3.29" id="svg_5"/>
  </g>
  <g fill="none" id="svg_6" stroke="#000" stroke-width="1px" transform="translate(-2.5 -1.5) translate(38 -2) matrix(-1.00153 0 0 1 573.999 -448.1)">
   <path d="m450.91,510.44c-2.57,0.21 -7.6,1.4 -11.32,1.83c-3.72,0.42 -8.4,0.53 -10.96,0.73c-2.56,0.19 -2.82,-0.1 -4.38,0.36c-1.57,0.47 -1.58,1.76 -4.75,2.56s-9.38,0.21 -12.42,1.09c-3.04,0.89 -3.55,0.52 -5.84,1.47c-2.29,0.94 -5,1.47 -9.86,2.19c-4.87,0.72 -13.69,1.31 -19.36,1.46c-5.67,0.14 -10.65,-0.32 -14.61,-0.37c-3.96,-0.05 -6.64,0 -9.13,0s-3.98,0.64 -5.85,0s-3.32,-1.57 -4.74,-3.65s-1.88,-5.11 -2.56,-8.77c-0.68,-3.65 -0.67,-8.64 -1.1,-13.14c-0.42,-4.51 -0.52,-9.54 -1.46,-13.88c-0.94,-4.35 -2.22,-8.38 -4.02,-12.06c-1.79,-3.67 -4.44,-7.76 -6.57,-9.86s-2.93,-2.04 -5.11,-3.29c-2.18,-1.24 -5.69,-3.15 -8.04,-4.01c-2.34,-0.87 -4.28,-1.71 -5.84,-1.46c-1.56,0.24 -2.26,0.63 -2.92,1.82c-0.67,1.2 -1.01,2.58 0,4.75c1,2.17 5.17,5.43 7.3,6.21c2.13,0.78 2.45,-0.65 4.02,0s2.79,2.1 4.38,4.38c1.59,2.28 3.17,6.32 4.38,9.5c1.22,3.17 2.32,5.82 2.93,9.49c0.6,3.68 0.38,8.83 0.36,12.42c-0.02,3.6 -0.49,6.08 -0.36,9.13s1,6.38 1.09,9.13c0.1,2.75 0.32,5.38 -0.36,7.31s-1.55,2.41 -2.93,4.02c-1.37,1.61 -3.27,3.17 -5.47,5.48s-4.77,4.83 -7.67,8.4s-7.4,9.21 -9.5,13.15c-2.1,3.93 -2.26,7.12 -3.65,9.86c-1.4,2.73 -2.67,4.55 -4.39,6.57s-4.25,3.44 -5.84,5.48s-2.14,4.13 -3.65,6.57s-4.11,5.7 -5.48,8.04c-1.37,2.34 -2.07,3.89 -2.92,5.84c-0.85,1.95 -2.49,3.69 -2.19,5.85c0.29,2.15 2.74,4.17 4.01,5.48s1.69,2.92 3.29,2.55s1.77,-2.86 2.56,-5.11c0.79,-2.25 0.82,-5.82 1.82,-8.4s1.21,-8.09 4.02,-6.94c2.81,1.15 -2.24,7.39 -2.55,9.86c-0.32,2.47 -0.71,3.25 0,4.75c0.7,1.5 2.14,3.74 4.01,3.29c1.88,-0.46 1.46,-3.35 2.56,-5.85c1.09,-2.49 2.22,-5.81 4.02,-9.13s4.82,-8.09 6.94,-10.59c2.11,-2.5 2.58,-3.16 5.11,-4.75c2.53,-1.59 7.3,-2 10.23,-4.02c2.92,-2.02 4.6,-5.48 6.94,-7.67s4.89,-4.17 6.94,-5.48s3.28,-1.81 5.11,-2.55s3.75,-1.51 5.84,-1.83c2.1,-0.32 4.08,-0.16 6.58,0s5.41,0.5 8.4,1.1c2.99,0.59 6.51,1.89 9.49,2.55c2.99,0.66 5.52,1.34 8.4,1.46c2.89,0.13 5.42,-0.53 8.77,-0.73s7.78,0.09 11.32,-0.36c3.55,-0.45 7.64,-1.31 9.86,-2.19c2.23,-0.89 1.97,-1.73 3.66,-2.19c1.68,-0.47 4.24,0.25 6.21,0s3.76,-1.88 5.47,-1.46c1.72,0.41 2.06,2.61 3.66,3.28c1.59,0.68 3.71,0.31 5.48,0.37c1.76,0.06 2.98,0 5.11,0s5.52,0.37 7.67,0s3.34,-1.34 5.11,-1.83c1.77,-0.49 3.89,-0.86 5.48,-1.09c1.59,-0.23 2.79,-0.45 4.02,-0.37c1.23,0.08 2.09,0.04 3.29,0.73c1.19,0.7 2.51,2.66 3.28,3.65c0.77,1 0.8,1.45 1.46,2.19c0.67,0.75 1.63,1.85 2.56,2.2c0.93,0.34 1.73,0.25 2.56,0c0.82,-0.25 1.09,-1.24 2.19,-1.46c1.09,-0.23 2.82,1.2 4.02,0.73c1.2,-0.48 1.8,-1.45 2.19,-2.93c0.38,-1.48 -0.29,-3.82 -0.73,-5.47c-0.45,-1.66 -0.84,-3.06 -1.83,-4.39s-2.31,-2.32 -4.02,-3.28c-1.71,-0.97 -4.32,-1.59 -6.21,-2.2c-1.89,-0.6 -3.27,-1.14 -5.11,-1.46c-1.83,-0.31 -4.02,-0.24 -5.84,-0.36s-3.72,-0.32 -5.12,-0.37c-1.4,-0.05 -2.94,0.96 -3.28,0c-0.35,-0.96 1.69,-1.05 2.19,-1.82c0.5,-0.77 0.15,-1.83 0.73,-2.56c0.57,-0.74 1.63,-1.09 2.55,-1.46c0.93,-0.37 2.47,-0.14 2.93,-0.73c0.46,-0.59 -0.79,-1.14 0,-1.46c0.78,-0.33 1.4,2.01 2.55,2.55c1.16,0.54 2.8,0.38 4.02,0.37c1.22,-0.01 2.25,-0.24 3.29,-0.37c1.03,-0.12 2.06,-0.1 2.92,-0.36c5,-2.56 -1.07,0.38 5.84,-1.83c0.54,-0.56 3.17,0.87 3.66,0.37c3.77,-1.92 6.22,-4.59 1.82,-7.67c-0.64,-0.27 -0.66,0.43 -1.09,0c-0.43,-0.43 0.05,-1.64 0,-2.56c-0.06,-0.91 -0.19,-1.58 -0.37,-2.92s-0.29,-3.84 -0.73,-5.11s-0.97,-1.83 -1.46,-2.56c-0.5,-0.73 -0.53,-1.02 -1.46,-1.83c-0.94,-0.8 -4.38,-2.55 -4.38,-2.55l0,-2.56l0.73,-4.75l0.36,-6.21s-4.2,2.86 -6.21,4.38c-2.01,1.53 -4.54,3.49 -5.84,4.75s-1.07,2.05 -2.19,2.56c-1.12,0.51 -1.45,-0.21 -4.02,0z" id="svg_7"/>
   <path d="m468.44,504.96l5.11,-3.29l-5.11,9.86l0,-6.57z" id="svg_8"/>
   <path d="m285.09,592.99l7.67,-6.94l6.21,-4.38l6.94,-4.02l5.84,-5.11l6.21,-6.21l4.75,-3.66l6.57,-4.01l6.58,-4.39" id="svg_9"/>
   <path d="m471.73,564.86l0.73,-5.11l-1.46,-4.75l-3.65,-4.38l-4.39,-2.56l-9.86,-3.29" id="svg_10"/>
  </g>
 </g>
</svg>